<svg width="20" height="18" viewBox="0 0 20 18" fill="none" xmlns="http://www.w3.org/2000/svg">
<path d="M6.50671 3.5C6.50671 3.04037 6.59724 2.58525 6.77313 2.16061C6.94902 1.73597 7.20683 1.35013 7.53184 1.02513C7.85684 0.700121 8.24268 0.442313 8.66732 0.266422C9.09196 0.0905301 9.54708 0 10.0067 0C10.4663 0 10.9215 0.0905301 11.3461 0.266422C11.7707 0.442313 12.1566 0.700121 12.4816 1.02513C12.8066 1.35013 13.0644 1.73597 13.2403 2.16061C13.4162 2.58525 13.5067 3.04037 13.5067 3.5C13.5067 4.42826 13.138 5.3185 12.4816 5.97487C11.8252 6.63125 10.935 7 10.0067 7C9.07845 7 8.18822 6.63125 7.53184 5.97487C6.87546 5.3185 6.50671 4.42826 6.50671 3.5ZM2.50671 8C3.16975 8 3.80564 7.73661 4.27448 7.26777C4.74332 6.79893 5.00671 6.16304 5.00671 5.5C5.00671 4.83696 4.74332 4.20107 4.27448 3.73223C3.80564 3.26339 3.16975 3 2.50671 3C1.84367 3 1.20779 3.26339 0.738944 3.73223C0.270103 4.20107 0.00671127 4.83696 0.00671127 5.5C0.00671127 6.16304 0.270103 6.79893 0.738944 7.26777C1.20779 7.73661 1.84367 8 2.50671 8ZM20.0067 5.5C20.0067 6.16304 19.7433 6.79893 19.2745 7.26777C18.8056 7.73661 18.1698 8 17.5067 8C16.8437 8 16.2078 7.73661 15.7389 7.26777C15.2701 6.79893 15.0067 6.16304 15.0067 5.5C15.0067 4.83696 15.2701 4.20107 15.7389 3.73223C16.2078 3.26339 16.8437 3 17.5067 3C18.1698 3 18.8056 3.26339 19.2745 3.73223C19.7433 4.20107 20.0067 4.83696 20.0067 5.5ZM8.50671 9C7.12671 9 6.00671 10.12 6.00671 11.5V14C6.00671 15.0609 6.42814 16.0783 7.17828 16.8284C7.92843 17.5786 8.94584 18 10.0067 18C11.0676 18 12.085 17.5786 12.8351 16.8284C13.5853 16.0783 14.0067 15.0609 14.0067 14V11.5C14.0067 10.12 12.8867 9 11.5067 9H8.50671ZM4.00671 11.5C4.00671 10.922 4.11471 10.37 4.31471 9.864L1.85271 10.524C1.21263 10.6956 0.666865 11.1143 0.335344 11.6881C0.0038223 12.2618 -0.0863255 12.9438 0.0847113 13.584L0.472711 15.034C0.608705 15.5415 0.843334 16.0172 1.1632 16.4339C1.48306 16.8507 1.88189 17.2004 2.33692 17.463C2.79194 17.7256 3.29424 17.896 3.81512 17.9645C4.33601 18.0329 4.86528 17.9981 5.37271 17.862L5.40671 17.852C4.50237 16.7721 4.00678 15.4085 4.00671 14V11.5ZM16.0067 14C16.0067 15.466 15.4807 16.81 14.6067 17.854L14.6387 17.862C15.6632 18.1363 16.7548 17.9925 17.6733 17.4621C18.5918 16.9318 19.262 16.0584 19.5367 15.034L19.9247 13.584C20.0957 12.9438 20.0056 12.2618 19.6741 11.6881C19.3426 11.1143 18.7968 10.6956 18.1567 10.524L15.7007 9.864C15.8987 10.372 16.0067 10.924 16.0067 11.5V14Z" fill="black"/>
</svg>
