<svg width="24" height="24" viewBox="0 0 24 24" fill="none" xmlns="http://www.w3.org/2000/svg">
<path d="M8.33301 18.2861C8.88529 18.2861 9.33301 18.7338 9.33301 19.2861V23C9.33301 23.5523 8.88529 24 8.33301 24H1C0.447715 24 0 23.5523 0 23V19.2861C0 18.7338 0.447715 18.2861 1 18.2861H8.33301ZM12.333 0C12.8853 3.40373e-08 13.333 0.447715 13.333 1V12.7139C13.333 13.2662 13.7807 13.7139 14.333 13.7139H23C23.5523 13.7139 24 14.1616 24 14.7139V23C24 23.5523 23.5523 24 23 24H11.667C11.1147 24 10.667 23.5523 10.667 23V18.1426C10.667 17.5903 10.2193 17.1426 9.66699 17.1426H1C0.447715 17.1426 6.9129e-09 16.6949 0 16.1426V1C7.5939e-08 0.447715 0.447715 0 1 0H12.333ZM23 0C23.5523 0 24 0.447715 24 1V11.5713C24 12.1236 23.5523 12.5713 23 12.5713H15.667C15.1147 12.5713 14.667 12.1236 14.667 11.5713V1C14.667 0.447715 15.1147 0 15.667 0H23Z" fill="black"/>
</svg>
