<svg width="15" height="12" viewBox="0 0 15 12" fill="none" xmlns="http://www.w3.org/2000/svg">
<path d="M12.3386 7.44256C11.7392 7.80694 11.0507 7.99858 10.3493 7.99631C9.76158 7.99167 9.18055 7.87147 8.63926 7.64256C8.22208 8.23151 7.99881 8.93583 8.00051 9.65756V11.5007C8.00066 11.5692 7.98672 11.6371 7.95954 11.7C7.93237 11.7629 7.89255 11.8196 7.84255 11.8665C7.79256 11.9134 7.73346 11.9495 7.66892 11.9726C7.60438 11.9957 7.53578 12.0052 7.46739 12.0007C7.33887 11.9895 7.21933 11.9301 7.13274 11.8345C7.04616 11.7389 6.99892 11.6141 7.00051 11.4851V10.7076L4.58676 8.29381C4.22795 8.42768 3.84847 8.49769 3.46551 8.50069C2.9383 8.50206 2.42095 8.3578 1.97051 8.08381C0.608636 7.25631 -0.124488 5.35194 0.0173865 2.98756C0.0245299 2.86524 0.0763408 2.7498 0.162983 2.66316C0.249625 2.57652 0.365065 2.52471 0.487386 2.51756C2.85176 2.37819 4.75614 3.10881 5.58114 4.47069C5.90527 5.00449 6.04678 5.62932 5.98426 6.25069C5.98037 6.29883 5.96263 6.34482 5.93316 6.38309C5.90369 6.42136 5.86377 6.45027 5.81822 6.46634C5.77267 6.4824 5.72345 6.48493 5.67649 6.47361C5.62954 6.4623 5.58686 6.43762 5.55364 6.40256L4.35364 5.14631C4.25911 5.0565 4.13323 5.00718 4.00285 5.00884C3.87247 5.01051 3.7479 5.06305 3.6557 5.15525C3.5635 5.24745 3.51096 5.37202 3.50929 5.5024C3.50762 5.63278 3.55695 5.75866 3.64676 5.85319L7.01426 9.30631C7.01801 9.25756 7.02239 9.20881 7.02739 9.16069C7.13673 8.23366 7.54579 7.36768 8.19239 6.69444L11.3543 3.35319C11.4481 3.25945 11.5008 3.13228 11.5009 2.99966C11.5009 2.86704 11.4483 2.73982 11.3546 2.646C11.2608 2.55218 11.1337 2.49944 11.001 2.49938C10.8684 2.49932 10.7412 2.55195 10.6474 2.64569L7.58489 5.88444C7.55423 5.91691 7.51544 5.94058 7.47254 5.95298C7.42965 5.96538 7.38421 5.96607 7.34096 5.95497C7.2977 5.94387 7.25821 5.92139 7.22659 5.88986C7.19497 5.85833 7.17237 5.81891 7.16114 5.77569C6.86489 4.68319 6.99551 3.59569 7.56114 2.66194C8.67739 0.81944 11.2749 -0.166811 14.5099 0.0231895C14.6322 0.0303329 14.7476 0.0821439 14.8343 0.168786C14.9209 0.255428 14.9727 0.370868 14.9799 0.49319C15.1674 3.72881 14.1811 6.32631 12.3386 7.44256Z" fill="black"/>
</svg>
